<mxfile host="app.diagrams.net" modified="2024-05-15T21:23:03.945Z" agent="Mozilla/5.0 (X11; Linux x86_64; rv:125.0) Gecko/20100101 Firefox/125.0" etag="t-5jOxFObbnjI1sf3-mY" version="24.4.2" type="device">
  <diagram id="C5RBs43oDa-KdzZeNtuy" name="Page-1">
    <mxGraphModel dx="1434" dy="1941" grid="1" gridSize="10" guides="1" tooltips="1" connect="1" arrows="1" fold="1" page="1" pageScale="1" pageWidth="827" pageHeight="1169" background="none" math="0" shadow="0">
      <root>
        <mxCell id="WIyWlLk6GJQsqaUBKTNV-0" />
        <mxCell id="WIyWlLk6GJQsqaUBKTNV-1" parent="WIyWlLk6GJQsqaUBKTNV-0" />
        <mxCell id="QAlqetZ4vXasrLzHOp76-10" value="&lt;p style=&quot;margin: 4px 0px 0px; text-align: center; font-size: 13px;&quot;&gt;&lt;i style=&quot;font-size: 13px;&quot;&gt;&amp;lt;&amp;lt;Interface&amp;gt;&amp;gt;&lt;/i&gt;&lt;br style=&quot;font-size: 13px;&quot;&gt;&lt;span style=&quot;font-size: 13px;&quot;&gt;ReprodutorMusical&lt;/span&gt;&lt;br style=&quot;font-size: 13px;&quot;&gt;&lt;/p&gt;&lt;hr style=&quot;border-style: solid; font-size: 13px;&quot;&gt;&lt;hr style=&quot;border-style: solid; font-size: 13px;&quot;&gt;&lt;p style=&quot;margin: 0px 0px 0px 4px; font-size: 13px;&quot;&gt;&lt;span style=&quot;white-space: pre; font-size: 13px;&quot;&gt;&#x9;&lt;/span&gt;+ tocar()&lt;/p&gt;&lt;p style=&quot;margin: 0px 0px 0px 4px; font-size: 13px;&quot;&gt;&lt;span style=&quot;white-space: pre; font-size: 13px;&quot;&gt;&#x9;&lt;/span&gt;+ pausar()&lt;/p&gt;&lt;p style=&quot;margin: 0px 0px 0px 4px; font-size: 13px;&quot;&gt;&lt;span style=&quot;white-space: pre; font-size: 13px;&quot;&gt;&#x9;&lt;/span&gt;+ selecionar_Musica()&lt;br style=&quot;font-size: 13px;&quot;&gt;&lt;/p&gt;" style="verticalAlign=top;align=left;overflow=fill;html=1;whiteSpace=wrap;fontSize=13;fontStyle=1" vertex="1" parent="WIyWlLk6GJQsqaUBKTNV-1">
          <mxGeometry x="50" y="-980" width="190" height="140" as="geometry" />
        </mxCell>
        <mxCell id="QAlqetZ4vXasrLzHOp76-11" value="&lt;p style=&quot;margin: 4px 0px 0px; text-align: center; font-size: 13px;&quot;&gt;&lt;i style=&quot;font-size: 13px;&quot;&gt;&amp;lt;&amp;lt;Interface&amp;gt;&amp;gt;&lt;/i&gt;&lt;br style=&quot;font-size: 13px;&quot;&gt;&lt;span style=&quot;font-size: 13px;&quot;&gt;AparelhoTelefonico&lt;/span&gt;&lt;br style=&quot;font-size: 13px;&quot;&gt;&lt;/p&gt;&lt;hr style=&quot;border-style: solid; font-size: 13px;&quot;&gt;&lt;hr style=&quot;border-style: solid; font-size: 13px;&quot;&gt;&lt;pre style=&quot;font-size: 13px;&quot;&gt;&lt;code style=&quot;font-size: 13px;&quot; class=&quot;!whitespace-pre hljs language-plantuml&quot;&gt;    + ligar()&lt;br style=&quot;font-size: 13px;&quot;&gt;    + atender()&lt;br style=&quot;font-size: 13px;&quot;&gt;    + iniciarChamadaVoz()&lt;/code&gt;&lt;/pre&gt;" style="verticalAlign=top;align=left;overflow=fill;html=1;whiteSpace=wrap;fontSize=13;fontStyle=1" vertex="1" parent="WIyWlLk6GJQsqaUBKTNV-1">
          <mxGeometry x="314" y="-980" width="200" height="140" as="geometry" />
        </mxCell>
        <mxCell id="QAlqetZ4vXasrLzHOp76-13" value="&lt;p style=&quot;margin: 4px 0px 0px; text-align: center; font-size: 13px;&quot;&gt;&lt;i style=&quot;font-size: 13px;&quot;&gt;&amp;lt;&amp;lt;Interface&amp;gt;&amp;gt;&lt;/i&gt;&lt;br style=&quot;font-size: 13px;&quot;&gt;NavegadorInternet&lt;br style=&quot;font-size: 13px;&quot;&gt;&lt;/p&gt;&lt;hr style=&quot;border-style: solid; font-size: 13px;&quot;&gt;&lt;hr style=&quot;border-style: solid; font-size: 13px;&quot;&gt;&lt;pre&gt;&lt;code class=&quot;!whitespace-pre hljs language-plantuml&quot;&gt;    + exibirPagina()&lt;br/&gt;    + adicionarNovaAba()&lt;br/&gt;    + atualizarPagina()&lt;/code&gt;&lt;/pre&gt;" style="verticalAlign=top;align=left;overflow=fill;html=1;whiteSpace=wrap;fontSize=13;fontStyle=1" vertex="1" parent="WIyWlLk6GJQsqaUBKTNV-1">
          <mxGeometry x="590" y="-980" width="190" height="140" as="geometry" />
        </mxCell>
        <mxCell id="QAlqetZ4vXasrLzHOp76-14" value="" style="endArrow=block;dashed=1;endFill=0;endSize=12;html=1;rounded=0;exitX=0;exitY=0.5;exitDx=0;exitDy=0;entryX=0.5;entryY=1;entryDx=0;entryDy=0;" edge="1" parent="WIyWlLk6GJQsqaUBKTNV-1" source="QAlqetZ4vXasrLzHOp76-17" target="QAlqetZ4vXasrLzHOp76-10">
          <mxGeometry width="160" relative="1" as="geometry">
            <mxPoint x="220" y="-690" as="sourcePoint" />
            <mxPoint x="220" y="-780" as="targetPoint" />
            <Array as="points">
              <mxPoint x="145" y="-680" />
            </Array>
          </mxGeometry>
        </mxCell>
        <mxCell id="QAlqetZ4vXasrLzHOp76-15" value="" style="endArrow=block;dashed=1;endFill=0;endSize=12;html=1;rounded=0;entryX=0.5;entryY=1;entryDx=0;entryDy=0;exitX=0.5;exitY=0;exitDx=0;exitDy=0;" edge="1" parent="WIyWlLk6GJQsqaUBKTNV-1" source="QAlqetZ4vXasrLzHOp76-17" target="QAlqetZ4vXasrLzHOp76-11">
          <mxGeometry width="160" relative="1" as="geometry">
            <mxPoint x="310" y="-810" as="sourcePoint" />
            <mxPoint x="409.5" y="-680" as="targetPoint" />
          </mxGeometry>
        </mxCell>
        <mxCell id="QAlqetZ4vXasrLzHOp76-16" value="" style="endArrow=block;dashed=1;endFill=0;endSize=12;html=1;rounded=0;entryX=0.5;entryY=1;entryDx=0;entryDy=0;exitX=1;exitY=0.5;exitDx=0;exitDy=0;" edge="1" parent="WIyWlLk6GJQsqaUBKTNV-1" source="QAlqetZ4vXasrLzHOp76-17" target="QAlqetZ4vXasrLzHOp76-13">
          <mxGeometry width="160" relative="1" as="geometry">
            <mxPoint x="570" y="-650" as="sourcePoint" />
            <mxPoint x="620" y="-620" as="targetPoint" />
            <Array as="points">
              <mxPoint x="685" y="-680" />
            </Array>
          </mxGeometry>
        </mxCell>
        <mxCell id="QAlqetZ4vXasrLzHOp76-17" value="&lt;p style=&quot;margin:0px;margin-top:4px;text-align:center;&quot;&gt;&lt;b&gt;Iphone&lt;/b&gt;&lt;br&gt;&lt;/p&gt;&lt;hr size=&quot;1&quot; style=&quot;border-style:solid;&quot;&gt;&lt;div style=&quot;height:2px;&quot;&gt;&lt;/div&gt;" style="verticalAlign=top;align=left;overflow=fill;html=1;whiteSpace=wrap;" vertex="1" parent="WIyWlLk6GJQsqaUBKTNV-1">
          <mxGeometry x="284" y="-770" width="260" height="180" as="geometry" />
        </mxCell>
      </root>
    </mxGraphModel>
  </diagram>
</mxfile>
